<mxfile host="app.diagrams.net" agent="Mozilla/5.0 (Windows NT 10.0; Win64; x64; rv:141.0) Gecko/20100101 Firefox/141.0" version="28.0.7">
  <diagram name="PÃ¡gina-1" id="TMDoCD8hCcpHIJEySzZF">
    <mxGraphModel dx="1026" dy="573" grid="1" gridSize="10" guides="1" tooltips="1" connect="1" arrows="1" fold="1" page="1" pageScale="1" pageWidth="827" pageHeight="1169" math="0" shadow="0">
      <root>
        <mxCell id="0" />
        <mxCell id="1" parent="0" />
        <mxCell id="A9B5jGg0RTKYAUVAofu6-21" style="edgeStyle=orthogonalEdgeStyle;rounded=0;orthogonalLoop=1;jettySize=auto;html=1;" edge="1" parent="1" source="A9B5jGg0RTKYAUVAofu6-13" target="A9B5jGg0RTKYAUVAofu6-14">
          <mxGeometry relative="1" as="geometry" />
        </mxCell>
        <mxCell id="A9B5jGg0RTKYAUVAofu6-13" value="User click register" style="html=1;dashed=0;whiteSpace=wrap;shape=mxgraph.dfd.start" vertex="1" parent="1">
          <mxGeometry x="374" y="40" width="96" height="40" as="geometry" />
        </mxCell>
        <mxCell id="A9B5jGg0RTKYAUVAofu6-20" style="edgeStyle=orthogonalEdgeStyle;rounded=0;orthogonalLoop=1;jettySize=auto;html=1;" edge="1" parent="1" source="A9B5jGg0RTKYAUVAofu6-14" target="A9B5jGg0RTKYAUVAofu6-15">
          <mxGeometry relative="1" as="geometry" />
        </mxCell>
        <mxCell id="A9B5jGg0RTKYAUVAofu6-14" value="User fill form" style="html=1;dashed=0;whiteSpace=wrap;" vertex="1" parent="1">
          <mxGeometry x="372" y="130" width="100" height="50" as="geometry" />
        </mxCell>
        <mxCell id="A9B5jGg0RTKYAUVAofu6-18" value="Yes" style="edgeStyle=orthogonalEdgeStyle;rounded=0;orthogonalLoop=1;jettySize=auto;html=1;entryX=0;entryY=0.5;entryDx=0;entryDy=0;fillColor=#f8cecc;strokeColor=#b85450;" edge="1" parent="1" source="A9B5jGg0RTKYAUVAofu6-15" target="A9B5jGg0RTKYAUVAofu6-16">
          <mxGeometry x="-0.25" relative="1" as="geometry">
            <mxPoint as="offset" />
          </mxGeometry>
        </mxCell>
        <mxCell id="A9B5jGg0RTKYAUVAofu6-25" style="edgeStyle=orthogonalEdgeStyle;rounded=0;orthogonalLoop=1;jettySize=auto;html=1;fillColor=#d5e8d4;strokeColor=#82b366;" edge="1" parent="1" source="A9B5jGg0RTKYAUVAofu6-15" target="A9B5jGg0RTKYAUVAofu6-24">
          <mxGeometry relative="1" as="geometry" />
        </mxCell>
        <mxCell id="A9B5jGg0RTKYAUVAofu6-29" value="No" style="edgeLabel;html=1;align=center;verticalAlign=middle;resizable=0;points=[];fontFamily=Helvetica;fontSize=11;fontColor=default;labelBackgroundColor=default;" vertex="1" connectable="0" parent="A9B5jGg0RTKYAUVAofu6-25">
          <mxGeometry x="-0.12" y="-1" relative="1" as="geometry">
            <mxPoint as="offset" />
          </mxGeometry>
        </mxCell>
        <mxCell id="A9B5jGg0RTKYAUVAofu6-15" value="&lt;div&gt;Email already&lt;/div&gt;&lt;div&gt;in DB?&lt;/div&gt;" style="shape=rhombus;html=1;dashed=0;whiteSpace=wrap;perimeter=rhombusPerimeter;" vertex="1" parent="1">
          <mxGeometry x="368" y="230" width="108" height="90" as="geometry" />
        </mxCell>
        <mxCell id="A9B5jGg0RTKYAUVAofu6-26" style="edgeStyle=orthogonalEdgeStyle;rounded=0;orthogonalLoop=1;jettySize=auto;html=1;" edge="1" parent="1" source="A9B5jGg0RTKYAUVAofu6-16" target="A9B5jGg0RTKYAUVAofu6-17">
          <mxGeometry relative="1" as="geometry" />
        </mxCell>
        <mxCell id="A9B5jGg0RTKYAUVAofu6-16" value="Show Error Message" style="html=1;dashed=0;whiteSpace=wrap;" vertex="1" parent="1">
          <mxGeometry x="540" y="250" width="100" height="50" as="geometry" />
        </mxCell>
        <mxCell id="A9B5jGg0RTKYAUVAofu6-27" style="edgeStyle=orthogonalEdgeStyle;rounded=0;orthogonalLoop=1;jettySize=auto;html=1;" edge="1" parent="1" source="A9B5jGg0RTKYAUVAofu6-17" target="A9B5jGg0RTKYAUVAofu6-15">
          <mxGeometry relative="1" as="geometry">
            <Array as="points">
              <mxPoint x="750" y="200" />
              <mxPoint x="422" y="200" />
            </Array>
          </mxGeometry>
        </mxCell>
        <mxCell id="A9B5jGg0RTKYAUVAofu6-17" value="User change email" style="html=1;dashed=0;whiteSpace=wrap;" vertex="1" parent="1">
          <mxGeometry x="700" y="250" width="100" height="50" as="geometry" />
        </mxCell>
        <mxCell id="A9B5jGg0RTKYAUVAofu6-22" value="User signin" style="html=1;dashed=0;whiteSpace=wrap;shape=mxgraph.dfd.start" vertex="1" parent="1">
          <mxGeometry x="382" y="470" width="80" height="30" as="geometry" />
        </mxCell>
        <mxCell id="A9B5jGg0RTKYAUVAofu6-28" style="edgeStyle=orthogonalEdgeStyle;rounded=0;orthogonalLoop=1;jettySize=auto;html=1;" edge="1" parent="1" source="A9B5jGg0RTKYAUVAofu6-24" target="A9B5jGg0RTKYAUVAofu6-22">
          <mxGeometry relative="1" as="geometry" />
        </mxCell>
        <mxCell id="A9B5jGg0RTKYAUVAofu6-24" value="Information saved in DB" style="html=1;dashed=0;whiteSpace=wrap;" vertex="1" parent="1">
          <mxGeometry x="372" y="370" width="100" height="50" as="geometry" />
        </mxCell>
      </root>
    </mxGraphModel>
  </diagram>
</mxfile>
